<svg width="337" height="87" viewBox="0 0 337 87" fill="none" xmlns="http://www.w3.org/2000/svg">
<rect width="336.588" height="86.5882" rx="26.6667" fill="url(#paint0_linear_24_634)"/>
<path d="M71.1102 56.3971C79.5528 56.3971 86.397 49.5529 86.397 41.1103C86.397 32.6676 79.5528 25.8235 71.1102 25.8235C62.6675 25.8235 55.8234 32.6676 55.8234 41.1103C55.8234 49.5529 62.6675 56.3971 71.1102 56.3971Z" stroke="black" stroke-width="2.91177" stroke-linecap="round" stroke-linejoin="round"/>
<path d="M81.9202 51.9202L90.7647 60.7647" stroke="black" stroke-width="2.91177" stroke-linecap="round" stroke-linejoin="round"/>
<path d="M122.288 28.2441C123.955 28.2441 125.622 28.2441 127.288 28.2441C128.988 28.2441 130.655 28.2775 132.288 28.3441C133.955 28.3775 135.555 28.4441 137.088 28.5441L136.888 31.9941H123.038C122.005 31.9941 121.238 32.2608 120.738 32.7941C120.272 33.2941 120.038 34.1275 120.038 35.2941V55.7941C120.038 56.9608 120.272 57.8108 120.738 58.3441C121.238 58.8775 122.005 59.1441 123.038 59.1441H136.888L137.088 62.5441C135.555 62.6441 133.955 62.7108 132.288 62.7441C130.655 62.7775 128.988 62.7941 127.288 62.7941C125.622 62.8275 123.955 62.8441 122.288 62.8441C120.255 62.8441 118.638 62.3108 117.438 61.2441C116.272 60.1441 115.672 58.6775 115.638 56.8441V34.2441C115.672 32.3775 116.272 30.9108 117.438 29.8441C118.638 28.7775 120.255 28.2441 122.288 28.2441ZM116.538 42.7941H134.938V46.3441H116.538V42.7941ZM164.217 38.4441L156.667 50.2441L164.817 62.7941H160.217L152.267 50.2441L159.617 38.4441H164.217ZM145.917 38.4441L153.267 50.2441L145.367 62.7941H140.717L148.867 50.2441L141.317 38.4441H145.917ZM155.417 48.4941V51.7941H150.167V48.4941H155.417ZM183.833 37.8441C186.799 37.8441 188.933 38.9441 190.233 41.1441C191.533 43.3108 192.183 46.5108 192.183 50.7441C192.183 53.8775 191.849 56.3775 191.183 58.2441C190.516 60.0775 189.499 61.3941 188.133 62.1941C186.799 62.9941 185.083 63.3941 182.983 63.3941C181.383 63.3941 179.799 63.1775 178.233 62.7441C176.699 62.3108 175.199 61.6441 173.733 60.7441L173.983 58.1941C175.549 58.6275 176.933 58.9941 178.133 59.2941C179.333 59.5608 180.599 59.6941 181.933 59.6941C183.366 59.6941 184.499 59.4441 185.333 58.9441C186.199 58.4441 186.833 57.5441 187.233 56.2441C187.633 54.9441 187.833 53.1108 187.833 50.7441C187.833 48.4441 187.649 46.6275 187.283 45.2941C186.916 43.9608 186.333 43.0108 185.533 42.4441C184.766 41.8441 183.733 41.5441 182.433 41.5441C181.099 41.5441 179.783 41.8608 178.483 42.4941C177.183 43.1275 175.666 44.0941 173.933 45.3941L173.533 42.5441C174.433 41.5775 175.449 40.7441 176.583 40.0441C177.716 39.3441 178.899 38.8108 180.133 38.4441C181.399 38.0441 182.633 37.8441 183.833 37.8441ZM173.383 38.4441L173.833 43.4941L174.133 44.1441V59.7441L173.933 60.3441C174.033 61.2775 174.083 62.1775 174.083 63.0441C174.116 63.9108 174.133 64.8275 174.133 65.7941V72.8441H169.883V38.4441H173.383ZM203.187 27.7941L203.137 56.0941C203.137 57.1608 203.42 57.9775 203.987 58.5441C204.587 59.0775 205.42 59.3441 206.487 59.3441H208.837L209.337 62.5941C209.037 62.7275 208.603 62.8441 208.037 62.9441C207.503 63.0441 206.937 63.1108 206.337 63.1441C205.77 63.2108 205.287 63.2441 204.887 63.2441C203.087 63.2441 201.637 62.7108 200.537 61.6441C199.47 60.5775 198.937 59.0441 198.937 57.0441V27.7941H203.187ZM224.03 37.8441C226.83 37.8441 229.064 38.2608 230.73 39.0941C232.43 39.9275 233.647 41.2941 234.38 43.1941C235.114 45.0608 235.48 47.5441 235.48 50.6441C235.48 53.7441 235.114 56.2441 234.38 58.1441C233.647 60.0108 232.43 61.3608 230.73 62.1941C229.064 63.0275 226.83 63.4441 224.03 63.4441C221.264 63.4441 219.03 63.0275 217.33 62.1941C215.664 61.3608 214.447 60.0108 213.68 58.1441C212.947 56.2441 212.58 53.7441 212.58 50.6441C212.58 47.5441 212.947 45.0608 213.68 43.1941C214.447 41.2941 215.664 39.9275 217.33 39.0941C219.03 38.2608 221.264 37.8441 224.03 37.8441ZM224.03 41.4441C222.264 41.4441 220.864 41.7275 219.83 42.2941C218.83 42.8275 218.114 43.7608 217.68 45.0941C217.247 46.4275 217.03 48.2775 217.03 50.6441C217.03 53.0108 217.247 54.8608 217.68 56.1941C218.114 57.5275 218.83 58.4775 219.83 59.0441C220.864 59.5775 222.264 59.8441 224.03 59.8441C225.797 59.8441 227.197 59.5775 228.23 59.0441C229.264 58.4775 229.997 57.5275 230.43 56.1941C230.864 54.8608 231.08 53.0108 231.08 50.6441C231.08 48.2775 230.864 46.4275 230.43 45.0941C229.997 43.7608 229.264 42.8275 228.23 42.2941C227.197 41.7275 225.797 41.4441 224.03 41.4441ZM245.448 38.4441L245.998 43.0941L246.398 43.8441V62.7941H242.148V38.4441H245.448ZM257.398 37.8441L256.898 41.8441H255.498C254.065 41.8441 252.632 42.1441 251.198 42.7441C249.765 43.3108 248.015 44.1275 245.948 45.1941L245.598 42.5441C247.398 41.0775 249.198 39.9275 250.998 39.0941C252.832 38.2608 254.598 37.8441 256.298 37.8441H257.398ZM271.582 37.8441C275.249 37.8441 277.899 38.5108 279.532 39.8441C281.199 41.1775 282.032 43.1608 282.032 45.7941C282.065 47.9608 281.615 49.6608 280.682 50.8941C279.749 52.0941 278.265 52.6941 276.232 52.6941H262.032V49.3941H275.132C276.232 49.3941 276.949 49.0275 277.282 48.2941C277.615 47.5275 277.782 46.6941 277.782 45.7941C277.749 44.2275 277.282 43.1108 276.382 42.4441C275.482 41.7775 273.949 41.4441 271.782 41.4441C270.015 41.4441 268.615 41.7108 267.582 42.2441C266.582 42.7441 265.865 43.6441 265.432 44.9441C265.032 46.2108 264.832 47.9941 264.832 50.2941C264.832 52.8941 265.082 54.8775 265.582 56.2441C266.115 57.6108 266.949 58.5441 268.082 59.0441C269.215 59.5441 270.715 59.7941 272.582 59.7941C273.882 59.7941 275.299 59.7441 276.832 59.6441C278.399 59.5108 279.799 59.3608 281.032 59.1941L281.482 62.0441C280.715 62.3441 279.765 62.5941 278.632 62.7941C277.532 62.9941 276.382 63.1441 275.182 63.2441C274.015 63.3441 272.965 63.3941 272.032 63.3941C269.232 63.3941 266.982 62.9775 265.282 62.1441C263.582 61.2775 262.332 59.9108 261.532 58.0441C260.765 56.1441 260.382 53.6441 260.382 50.5441C260.382 47.3441 260.765 44.8275 261.532 42.9941C262.332 41.1275 263.549 39.8108 265.182 39.0441C266.849 38.2441 268.982 37.8441 271.582 37.8441Z" fill="black"/>
<defs>
<linearGradient id="paint0_linear_24_634" x1="-2.48537e-06" y1="43.8714" x2="336.588" y2="43.8714" gradientUnits="userSpaceOnUse">
<stop stop-color="#E39B06"/>
<stop offset="0.521885" stop-color="#DFAA3D"/>
<stop offset="1" stop-color="#E39B06"/>
</linearGradient>
</defs>
</svg>
